<svg xmlns="http://www.w3.org/2000/svg" viewBox="0 0 512 512" width="512" height="512">
  <defs>
    <mask id="note-mask">
      <rect width="512" height="512" fill="white" />
      <g transform="translate(376, 210)">
        <path d="M-15,-40 L160,20 L160,180 L-15,180 Z" fill="black" />
        <circle cx="-20" cy="180" r="75" fill="black" />
      </g>
    </mask>
  </defs>

  <rect width="512" height="512" fill="#121212"/>
  
  <g mask="url(#note-mask)">
    <circle cx="256" cy="256" r="175" fill="none" stroke="#333" stroke-width="36"/>
    <circle cx="256" cy="256" r="55" fill="none" stroke="#333" stroke-width="24"/>
    <circle cx="256" cy="256" r="14" fill="#333"/>
  </g>

  <g transform="translate(376, 210)">
    <rect x="0" y="0" width="30" height="180" fill="#333"/>
    <path d="M26,10 Q26,0 30,0 C110,20 110,60 110,110 L110,140 C110,95 75,85 30,75 Q26,75 26,65 Z" fill="#333"/>
    <circle cx="-20" cy="180" r="50" fill="#333"/>
  </g>
</svg>
